<?xml version="1.0" encoding="UTF-8"?>
<svg height="128px" viewBox="0 0 128 128" width="128px" xmlns="http://www.w3.org/2000/svg">
    <g fill="#d0c339">
        <path d="m 64.316406 11.246094 c 2.6875 0.007812 17.523438 31.363281 19.691406 32.949218 c 2.167969 1.585938 36.546876 6.214844 37.367188 8.773438 c 0.824219 2.558594 -24.410156 26.355469 -25.25 28.910156 c -0.835938 2.554688 5.382812 36.675782 3.203125 38.25 c -2.179687 1.574219 -32.609375 -15.074218 -35.296875 -15.082031 s -33.21875 16.453125 -35.390625 14.867187 c -2.167969 -1.585937 4.257813 -35.671874 3.4375 -38.230468 c -0.824219 -2.558594 -25.914063 -26.507813 -25.074219 -29.0625 c 0.839844 -2.550782 35.242188 -6.972656 37.421875 -8.546875 c 2.175781 -1.574219 17.203125 -32.835938 19.890625 -32.828125 z m 0 0"/>
        <path d="m 114.859375 45.695312 h 6.53125 v 7.382813 h -6.53125 z m 0 0"/>
        <path d="m 6.980469 45.441406 h 6.53125 v 7.382813 h -6.53125 z m 0 0"/>
    </g>
    <path d="m 64.316406 4 c 2.6875 0.007812 17.523438 31.359375 19.691406 32.945312 c 2.167969 1.585938 36.546876 6.21875 37.367188 8.777344 c 0.824219 2.554688 -24.410156 26.355469 -25.25 28.910156 c -0.835938 2.550782 5.382812 36.675782 3.203125 38.25 c -2.179687 1.570313 -32.609375 -15.074218 -35.296875 -15.082031 c -2.6875 -0.007812 -33.21875 16.453125 -35.390625 14.867188 c -2.167969 -1.585938 4.257813 -35.675781 3.4375 -38.230469 c -0.824219 -2.558594 -25.914063 -26.511719 -25.074219 -29.0625 c 0.839844 -2.554688 35.242188 -6.976562 37.421875 -8.546875 c 2.175781 -1.574219 17.203125 -32.835937 19.890625 -32.828125 z m 0 0" fill="#f6d32d"/>
    <path d="m 54.238281 45.792969 c -5.738281 0 -10.359375 4.625 -10.359375 10.363281 c 0 5.734375 4.621094 10.359375 10.359375 10.359375 h 20.71875 c 5.746094 0 10.359375 -4.625 10.359375 -10.359375 c 0 -5.738281 -4.613281 -10.363281 -10.359375 -10.363281 z m 20.71875 2.960937 c 4.101563 0 7.398438 3.296875 7.398438 7.402344 c 0 4.089844 -3.296875 7.398438 -7.398438 7.398438 c -4.09375 0 -7.402343 -3.308594 -7.402343 -7.398438 c 0 -4.105469 3.308593 -7.402344 7.402343 -7.402344 z m 0 0" fill="#1f4877"/>
    <path d="m 54.238281 69.472656 c -5.738281 0 -10.359375 4.625 -10.359375 10.359375 s 4.621094 10.359375 10.359375 10.359375 h 20.71875 c 5.746094 0 10.359375 -4.625 10.359375 -10.359375 s -4.613281 -10.359375 -10.359375 -10.359375 z m 0 2.960938 c 4.101563 0 7.398438 3.296875 7.398438 7.398437 c 0 4.09375 -3.296875 7.402344 -7.398438 7.402344 c -4.09375 0 -7.402343 -3.308594 -7.402343 -7.402344 c 0 -4.101562 3.308593 -7.398437 7.402343 -7.398437 z m 0 0" fill="#1f4877"/>
    <path d="m 54.238281 44.027344 c -5.738281 0 -10.359375 4.625 -10.359375 10.359375 s 4.621094 10.359375 10.359375 10.359375 h 20.71875 c 5.746094 0 10.359375 -4.625 10.359375 -10.359375 s -4.613281 -10.359375 -10.359375 -10.359375 z m 20.71875 2.960937 c 4.101563 0 7.398438 3.292969 7.398438 7.398438 c 0 4.09375 -3.296875 7.398437 -7.398438 7.398437 c -4.09375 0 -7.402343 -3.304687 -7.402343 -7.398437 c 0 -4.105469 3.308593 -7.398438 7.402343 -7.398438 z m 0 0" fill="#3584e4"/>
    <path d="m 54.238281 67.707031 c -5.738281 0 -10.359375 4.625 -10.359375 10.359375 s 4.621094 10.359375 10.359375 10.359375 h 20.71875 c 5.746094 0 10.359375 -4.625 10.359375 -10.359375 s -4.613281 -10.359375 -10.359375 -10.359375 z m 0 2.957031 c 4.101563 0 7.398438 3.296876 7.398438 7.402344 c 0 4.09375 -3.296875 7.398438 -7.398438 7.398438 c -4.09375 0 -7.402343 -3.304688 -7.402343 -7.398438 c 0 -4.105468 3.308593 -7.402344 7.402343 -7.402344 z m 0 0" fill="#3584e4"/>
</svg>
